<?xml version="1.0" encoding="UTF-8" standalone="no"?>
<!DOCTYPE svg PUBLIC "-//W3C//DTD SVG 1.1//EN"
 "http://www.w3.org/Graphics/SVG/1.1/DTD/svg11.dtd">
<!-- Generated by graphviz version 2.40.1 (20161225.0304)
 -->
<!-- Title: G Pages: 1 -->
<svg width="308pt" height="548pt"
 viewBox="0.00 0.00 307.73 548.00" xmlns="http://www.w3.org/2000/svg" xmlns:xlink="http://www.w3.org/1999/xlink">
<g id="graph0" class="graph" transform="scale(1 1) rotate(0) translate(4 544)">
<title>G</title>
<polygon fill="#ffffff" stroke="transparent" points="-4,4 -4,-544 303.7253,-544 303.7253,4 -4,4"/>
<!-- 0 -->
<g id="node1" class="node">
<title>0</title>
<ellipse fill="none" stroke="#000000" cx="178.5141" cy="-522" rx="67.1684" ry="18"/>
<text text-anchor="middle" x="178.5141" y="-517.8" font-family="Times,serif" font-size="14.00" fill="#000000">apply : nat x nat</text>
</g>
<!-- 1 -->
<g id="node2" class="node">
<title>1</title>
<ellipse fill="none" stroke="#000000" cx="102.5141" cy="-450" rx="102.5283" ry="18"/>
<text text-anchor="middle" x="102.5141" y="-445.8" font-family="Times,serif" font-size="14.00" fill="#000000">lambda : nat &#45;&gt; (nat x nat)</text>
</g>
<!-- 0&#45;&gt;1 -->
<g id="edge1" class="edge">
<title>0&#45;&gt;1</title>
<path fill="none" stroke="#000000" d="M160.1167,-504.5708C150.6428,-495.5955 138.9303,-484.4996 128.5459,-474.6617"/>
<polygon fill="#000000" stroke="#000000" points="130.9368,-472.1055 121.2702,-467.7689 126.1226,-477.1872 130.9368,-472.1055"/>
</g>
<!-- 12 -->
<g id="node3" class="node">
<title>12</title>
<ellipse fill="none" stroke="#000000" cx="255.5141" cy="-450" rx="32.4237" ry="18"/>
<text text-anchor="middle" x="255.5141" y="-445.8" font-family="Times,serif" font-size="14.00" fill="#000000">x : nat</text>
</g>
<!-- 0&#45;&gt;12 -->
<g id="edge2" class="edge">
<title>0&#45;&gt;12</title>
<path fill="none" stroke="#000000" d="M197.1537,-504.5708C207.4964,-494.8997 220.4723,-482.7664 231.5608,-472.3979"/>
<polygon fill="#000000" stroke="#000000" points="233.9666,-474.9401 238.8804,-465.5537 229.1856,-469.8271 233.9666,-474.9401"/>
</g>
<!-- 2 -->
<g id="node4" class="node">
<title>2</title>
<ellipse fill="none" stroke="#000000" cx="50.5141" cy="-378" rx="32.4237" ry="18"/>
<text text-anchor="middle" x="50.5141" y="-373.8" font-family="Times,serif" font-size="14.00" fill="#000000">x : nat</text>
</g>
<!-- 1&#45;&gt;2 -->
<g id="edge3" class="edge">
<title>1&#45;&gt;2</title>
<path fill="none" stroke="#000000" d="M89.3923,-431.8314C83.1267,-423.1559 75.5262,-412.632 68.7132,-403.1987"/>
<polygon fill="#000000" stroke="#000000" points="71.431,-400.9839 62.7387,-394.9263 65.7562,-405.0823 71.431,-400.9839"/>
</g>
<!-- 3 -->
<g id="node5" class="node">
<title>3</title>
<ellipse fill="none" stroke="#000000" cx="155.5141" cy="-378" rx="54.1317" ry="18"/>
<text text-anchor="middle" x="155.5141" y="-373.8" font-family="Times,serif" font-size="14.00" fill="#000000">pi : nat x nat</text>
</g>
<!-- 1&#45;&gt;3 -->
<g id="edge4" class="edge">
<title>1&#45;&gt;3</title>
<path fill="none" stroke="#000000" d="M115.8883,-431.8314C122.0866,-423.411 129.5666,-413.2495 136.3504,-404.0338"/>
<polygon fill="#000000" stroke="#000000" points="139.2183,-406.0417 142.3279,-395.9134 133.581,-401.8919 139.2183,-406.0417"/>
</g>
<!-- 4 -->
<g id="node6" class="node">
<title>4</title>
<ellipse fill="none" stroke="#000000" cx="106.5141" cy="-306" rx="32.4237" ry="18"/>
<text text-anchor="middle" x="106.5141" y="-301.8" font-family="Times,serif" font-size="14.00" fill="#000000">x : nat</text>
</g>
<!-- 3&#45;&gt;4 -->
<g id="edge5" class="edge">
<title>3&#45;&gt;4</title>
<path fill="none" stroke="#000000" d="M143.4018,-360.2022C137.4999,-351.5301 130.2965,-340.9455 123.8267,-331.4389"/>
<polygon fill="#000000" stroke="#000000" points="126.6695,-329.3952 118.1497,-323.0972 120.8825,-333.3336 126.6695,-329.3952"/>
</g>
<!-- 5 -->
<g id="node7" class="node">
<title>5</title>
<ellipse fill="none" stroke="#000000" cx="204.5141" cy="-306" rx="47.3736" ry="18"/>
<text text-anchor="middle" x="204.5141" y="-301.8" font-family="Times,serif" font-size="14.00" fill="#000000">apply : nat</text>
</g>
<!-- 3&#45;&gt;5 -->
<g id="edge6" class="edge">
<title>3&#45;&gt;5</title>
<path fill="none" stroke="#000000" d="M167.6265,-360.2022C173.3823,-351.7448 180.3759,-341.4685 186.7196,-332.147"/>
<polygon fill="#000000" stroke="#000000" points="189.8083,-333.8294 192.5411,-323.593 184.0213,-329.891 189.8083,-333.8294"/>
</g>
<!-- 6 -->
<g id="node8" class="node">
<title>6</title>
<ellipse fill="none" stroke="#000000" cx="140.5141" cy="-234" rx="76.9538" ry="18"/>
<text text-anchor="middle" x="140.5141" y="-229.8" font-family="Times,serif" font-size="14.00" fill="#000000">lambda : nat &#45;&gt; nat</text>
</g>
<!-- 5&#45;&gt;6 -->
<g id="edge7" class="edge">
<title>5&#45;&gt;6</title>
<path fill="none" stroke="#000000" d="M189.347,-288.937C181.4719,-280.0775 171.6954,-269.0789 162.9634,-259.2554"/>
<polygon fill="#000000" stroke="#000000" points="165.5003,-256.8413 156.2407,-251.6924 160.2685,-261.4918 165.5003,-256.8413"/>
</g>
<!-- 11 -->
<g id="node9" class="node">
<title>11</title>
<ellipse fill="none" stroke="#000000" cx="267.5141" cy="-234" rx="32.4237" ry="18"/>
<text text-anchor="middle" x="267.5141" y="-229.8" font-family="Times,serif" font-size="14.00" fill="#000000">x : nat</text>
</g>
<!-- 5&#45;&gt;11 -->
<g id="edge8" class="edge">
<title>5&#45;&gt;11</title>
<path fill="none" stroke="#000000" d="M219.7647,-288.5708C227.8104,-279.3758 237.8037,-267.9548 246.5655,-257.9413"/>
<polygon fill="#000000" stroke="#000000" points="249.3166,-260.1123 253.2677,-250.2817 244.0485,-255.5027 249.3166,-260.1123"/>
</g>
<!-- 7 -->
<g id="node10" class="node">
<title>7</title>
<ellipse fill="none" stroke="#000000" cx="93.5141" cy="-162" rx="32.4237" ry="18"/>
<text text-anchor="middle" x="93.5141" y="-157.8" font-family="Times,serif" font-size="14.00" fill="#000000">x : nat</text>
</g>
<!-- 6&#45;&gt;7 -->
<g id="edge9" class="edge">
<title>6&#45;&gt;7</title>
<path fill="none" stroke="#000000" d="M128.8962,-216.2022C123.2929,-207.6186 116.4667,-197.1613 110.3103,-187.7303"/>
<polygon fill="#000000" stroke="#000000" points="113.0719,-185.5578 104.6748,-179.0972 107.2103,-189.3842 113.0719,-185.5578"/>
</g>
<!-- 8 -->
<g id="node11" class="node">
<title>8</title>
<ellipse fill="none" stroke="#000000" cx="187.5141" cy="-162" rx="43.506" ry="18"/>
<text text-anchor="middle" x="187.5141" y="-157.8" font-family="Times,serif" font-size="14.00" fill="#000000">succ : nat</text>
</g>
<!-- 6&#45;&gt;8 -->
<g id="edge10" class="edge">
<title>6&#45;&gt;8</title>
<path fill="none" stroke="#000000" d="M152.1321,-216.2022C157.6529,-207.7448 164.3611,-197.4685 170.446,-188.147"/>
<polygon fill="#000000" stroke="#000000" points="173.4944,-189.88 176.0298,-179.593 167.6327,-186.0536 173.4944,-189.88"/>
</g>
<!-- 9 -->
<g id="node12" class="node">
<title>9</title>
<ellipse fill="none" stroke="#000000" cx="187.5141" cy="-90" rx="43.506" ry="18"/>
<text text-anchor="middle" x="187.5141" y="-85.8" font-family="Times,serif" font-size="14.00" fill="#000000">succ : nat</text>
</g>
<!-- 8&#45;&gt;9 -->
<g id="edge11" class="edge">
<title>8&#45;&gt;9</title>
<path fill="none" stroke="#000000" d="M187.5141,-143.8314C187.5141,-136.131 187.5141,-126.9743 187.5141,-118.4166"/>
<polygon fill="#000000" stroke="#000000" points="191.0142,-118.4132 187.5141,-108.4133 184.0142,-118.4133 191.0142,-118.4132"/>
</g>
<!-- 10 -->
<g id="node13" class="node">
<title>10</title>
<ellipse fill="none" stroke="#000000" cx="187.5141" cy="-18" rx="32.4237" ry="18"/>
<text text-anchor="middle" x="187.5141" y="-13.8" font-family="Times,serif" font-size="14.00" fill="#000000">x : nat</text>
</g>
<!-- 9&#45;&gt;10 -->
<g id="edge12" class="edge">
<title>9&#45;&gt;10</title>
<path fill="none" stroke="#000000" d="M187.5141,-71.8314C187.5141,-64.131 187.5141,-54.9743 187.5141,-46.4166"/>
<polygon fill="#000000" stroke="#000000" points="191.0142,-46.4132 187.5141,-36.4133 184.0142,-46.4133 191.0142,-46.4132"/>
</g>
</g>
</svg>
