<?xml version="1.0" encoding="UTF-8" standalone="no"?>
<!DOCTYPE svg PUBLIC "-//W3C//DTD SVG 1.1//EN"
 "http://www.w3.org/Graphics/SVG/1.1/DTD/svg11.dtd">
<!-- Generated by graphviz version 2.40.1 (20161225.0304)
 -->
<!-- Title: G Pages: 1 -->
<svg width="367pt" height="404pt"
 viewBox="0.00 0.00 367.27 404.00" xmlns="http://www.w3.org/2000/svg" xmlns:xlink="http://www.w3.org/1999/xlink">
<g id="graph0" class="graph" transform="scale(1 1) rotate(0) translate(4 400)">
<title>G</title>
<polygon fill="#ffffff" stroke="transparent" points="-4,4 -4,-400 363.2712,-400 363.2712,4 -4,4"/>
<!-- 0 -->
<g id="node1" class="node">
<title>0</title>
<ellipse fill="none" stroke="#000000" cx="231.6735" cy="-378" rx="79.7144" ry="18"/>
<text text-anchor="middle" x="231.6735" y="-373.8" font-family="Times,serif" font-size="14.00" fill="#000000">apply : Char x Char</text>
</g>
<!-- 1 -->
<g id="node2" class="node">
<title>1</title>
<ellipse fill="none" stroke="#000000" cx="142.6735" cy="-306" rx="121.8473" ry="18"/>
<text text-anchor="middle" x="142.6735" y="-301.8" font-family="Times,serif" font-size="14.00" fill="#000000">lambda : Char &#45;&gt; (Char x Char)</text>
</g>
<!-- 0&#45;&gt;1 -->
<g id="edge1" class="edge">
<title>0&#45;&gt;1</title>
<path fill="none" stroke="#000000" d="M210.1291,-360.5708C198.8193,-351.4213 184.7852,-340.0679 172.4515,-330.0901"/>
<polygon fill="#000000" stroke="#000000" points="174.6137,-327.3373 164.6378,-323.7689 170.211,-332.7795 174.6137,-327.3373"/>
</g>
<!-- 10 -->
<g id="node3" class="node">
<title>10</title>
<ellipse fill="none" stroke="#000000" cx="320.6735" cy="-306" rx="38.6955" ry="18"/>
<text text-anchor="middle" x="320.6735" y="-301.8" font-family="Times,serif" font-size="14.00" fill="#000000">x : Char</text>
</g>
<!-- 0&#45;&gt;10 -->
<g id="edge2" class="edge">
<title>0&#45;&gt;10</title>
<path fill="none" stroke="#000000" d="M253.218,-360.5708C265.203,-350.875 280.2473,-338.7044 293.0854,-328.3185"/>
<polygon fill="#000000" stroke="#000000" points="295.5758,-330.8057 301.149,-321.7951 291.1732,-325.3636 295.5758,-330.8057"/>
</g>
<!-- 2 -->
<g id="node4" class="node">
<title>2</title>
<ellipse fill="none" stroke="#000000" cx="74.6735" cy="-234" rx="38.6955" ry="18"/>
<text text-anchor="middle" x="74.6735" y="-229.8" font-family="Times,serif" font-size="14.00" fill="#000000">x : Char</text>
</g>
<!-- 1&#45;&gt;2 -->
<g id="edge3" class="edge">
<title>1&#45;&gt;2</title>
<path fill="none" stroke="#000000" d="M125.5143,-287.8314C117.0699,-278.8903 106.7714,-267.986 97.6571,-258.3355"/>
<polygon fill="#000000" stroke="#000000" points="100.0703,-255.7933 90.6595,-250.9263 94.9812,-260.5996 100.0703,-255.7933"/>
</g>
<!-- 3 -->
<g id="node5" class="node">
<title>3</title>
<ellipse fill="none" stroke="#000000" cx="210.6735" cy="-234" rx="79.7144" ry="18"/>
<text text-anchor="middle" x="210.6735" y="-229.8" font-family="Times,serif" font-size="14.00" fill="#000000">apply : Char x Char</text>
</g>
<!-- 1&#45;&gt;3 -->
<g id="edge4" class="edge">
<title>1&#45;&gt;3</title>
<path fill="none" stroke="#000000" d="M159.8328,-287.8314C168.0288,-279.1533 177.9715,-268.6257 186.8828,-259.1902"/>
<polygon fill="#000000" stroke="#000000" points="189.4336,-261.5868 193.7553,-251.9134 184.3445,-256.7804 189.4336,-261.5868"/>
</g>
<!-- 4 -->
<g id="node6" class="node">
<title>4</title>
<ellipse fill="none" stroke="#000000" cx="121.6735" cy="-162" rx="121.8473" ry="18"/>
<text text-anchor="middle" x="121.6735" y="-157.8" font-family="Times,serif" font-size="14.00" fill="#000000">lambda : Char &#45;&gt; (Char x Char)</text>
</g>
<!-- 3&#45;&gt;4 -->
<g id="edge5" class="edge">
<title>3&#45;&gt;4</title>
<path fill="none" stroke="#000000" d="M189.1291,-216.5708C177.8193,-207.4213 163.7852,-196.0679 151.4515,-186.0901"/>
<polygon fill="#000000" stroke="#000000" points="153.6137,-183.3373 143.6378,-179.7689 149.211,-188.7795 153.6137,-183.3373"/>
</g>
<!-- 9 -->
<g id="node7" class="node">
<title>9</title>
<ellipse fill="none" stroke="#000000" cx="299.6735" cy="-162" rx="38.6955" ry="18"/>
<text text-anchor="middle" x="299.6735" y="-157.8" font-family="Times,serif" font-size="14.00" fill="#000000">y : Char</text>
</g>
<!-- 3&#45;&gt;9 -->
<g id="edge6" class="edge">
<title>3&#45;&gt;9</title>
<path fill="none" stroke="#000000" d="M232.218,-216.5708C244.203,-206.875 259.2473,-194.7044 272.0854,-184.3185"/>
<polygon fill="#000000" stroke="#000000" points="274.5758,-186.8057 280.149,-177.7951 270.1732,-181.3636 274.5758,-186.8057"/>
</g>
<!-- 5 -->
<g id="node8" class="node">
<title>5</title>
<ellipse fill="none" stroke="#000000" cx="59.6735" cy="-90" rx="38.6955" ry="18"/>
<text text-anchor="middle" x="59.6735" y="-85.8" font-family="Times,serif" font-size="14.00" fill="#000000">y : Char</text>
</g>
<!-- 4&#45;&gt;5 -->
<g id="edge7" class="edge">
<title>4&#45;&gt;5</title>
<path fill="none" stroke="#000000" d="M106.0283,-143.8314C98.4053,-134.9788 89.125,-124.2017 80.8763,-114.6225"/>
<polygon fill="#000000" stroke="#000000" points="83.4264,-112.2202 74.249,-106.9263 78.122,-116.7878 83.4264,-112.2202"/>
</g>
<!-- 6 -->
<g id="node9" class="node">
<title>6</title>
<ellipse fill="none" stroke="#000000" cx="183.6735" cy="-90" rx="67.177" ry="18"/>
<text text-anchor="middle" x="183.6735" y="-85.8" font-family="Times,serif" font-size="14.00" fill="#000000">pi : Char x Char</text>
</g>
<!-- 4&#45;&gt;6 -->
<g id="edge8" class="edge">
<title>4&#45;&gt;6</title>
<path fill="none" stroke="#000000" d="M137.3188,-143.8314C144.6436,-135.3251 153.4985,-125.0419 161.4982,-115.752"/>
<polygon fill="#000000" stroke="#000000" points="164.375,-117.775 168.2481,-107.9134 159.0706,-113.2073 164.375,-117.775"/>
</g>
<!-- 7 -->
<g id="node10" class="node">
<title>7</title>
<ellipse fill="none" stroke="#000000" cx="135.6735" cy="-18" rx="38.6955" ry="18"/>
<text text-anchor="middle" x="135.6735" y="-13.8" font-family="Times,serif" font-size="14.00" fill="#000000">x : Char</text>
</g>
<!-- 6&#45;&gt;7 -->
<g id="edge9" class="edge">
<title>6&#45;&gt;7</title>
<path fill="none" stroke="#000000" d="M171.8084,-72.2022C166.128,-63.6817 159.2169,-53.315 152.9659,-43.9385"/>
<polygon fill="#000000" stroke="#000000" points="155.6958,-41.7236 147.2366,-35.3446 149.8715,-45.6066 155.6958,-41.7236"/>
</g>
<!-- 8 -->
<g id="node11" class="node">
<title>8</title>
<ellipse fill="none" stroke="#000000" cx="230.6735" cy="-18" rx="38.6955" ry="18"/>
<text text-anchor="middle" x="230.6735" y="-13.8" font-family="Times,serif" font-size="14.00" fill="#000000">y : Char</text>
</g>
<!-- 6&#45;&gt;8 -->
<g id="edge10" class="edge">
<title>6&#45;&gt;8</title>
<path fill="none" stroke="#000000" d="M195.2915,-72.2022C200.8536,-63.6817 207.6207,-53.315 213.7415,-43.9385"/>
<polygon fill="#000000" stroke="#000000" points="216.8159,-45.6316 219.3514,-35.3446 210.9543,-41.8052 216.8159,-45.6316"/>
</g>
</g>
</svg>
